<svg xmlns="http://www.w3.org/2000/svg" width="144" height="144" viewBox="0 0 144 144" fill="none"><circle cx="72" cy="72" r="72" fill="#E4032F"></circle><path d="M40.7211 70.44C37.7878 70.44 35.5878 69.6133 34.1211 67.96C32.6811 66.3067 31.8944 63.84 31.7611 60.56L36.8411 59.56C36.9211 61.6133 37.2411 63.1867 37.8011 64.28C38.3878 65.3467 39.2944 65.88 40.5211 65.88C41.4278 65.88 42.0944 65.6133 42.5211 65.08C42.9744 64.52 43.2011 63.7733 43.2011 62.84C43.2011 61.56 42.9078 60.48 42.3211 59.6C41.7611 58.6933 40.8678 57.7067 39.6411 56.64L35.5611 53.08C34.3078 52.0133 33.3611 50.8667 32.7211 49.64C32.1078 48.4133 31.8011 46.9467 31.8011 45.24C31.8011 42.7067 32.5344 40.7467 34.0011 39.36C35.4944 37.9467 37.5478 37.24 40.1611 37.24C42.9611 37.24 44.9611 38.04 46.1611 39.64C47.3878 41.2133 48.0944 43.3467 48.2811 46.04L43.2011 46.92C43.1211 45.16 42.8678 43.84 42.4411 42.96C42.0411 42.0533 41.2411 41.6 40.0411 41.6C39.1878 41.6 38.5211 41.8933 38.0411 42.48C37.5611 43.04 37.3211 43.76 37.3211 44.64C37.3211 45.68 37.5211 46.56 37.9211 47.28C38.3478 47.9733 39.0278 48.72 39.9611 49.52L44.0011 53.08C45.5211 54.3867 46.7078 55.7867 47.5611 57.28C48.4144 58.7733 48.8411 60.5067 48.8411 62.48C48.8411 64.0267 48.4944 65.4 47.8011 66.6C47.1344 67.8 46.1878 68.7467 44.9611 69.44C43.7344 70.1067 42.3211 70.44 40.7211 70.44ZM57.0105 37.6H63.3305L69.8105 70H64.3305L63.0505 62.52H57.4105L56.0905 70H50.5305L57.0105 37.6ZM62.4105 58.76L60.2105 45.16L58.0105 58.76H62.4105ZM70.338 37.6H75.538L79.818 60.52L83.858 37.6H89.178L82.658 70H76.858L70.338 37.6ZM92.483 37.6H106.083V41.76H98.363V51.08H104.443V55.2H98.363V65.96H106.163V70H92.483V37.6ZM44.7109 110.48C39.0843 110.48 36.2709 107.387 36.2709 101.2V100.08H41.7509V101.04C41.8043 102.693 42.0309 103.907 42.4309 104.68C42.8576 105.453 43.6309 105.84 44.7509 105.84C45.8976 105.84 46.6709 105.44 47.0709 104.64C47.4709 103.813 47.6709 102.52 47.6709 100.76C47.6709 99 47.3909 97.6667 46.8309 96.76C46.2709 95.8533 45.2843 95.36 43.8709 95.28H42.9509V90.84H43.7909C45.2309 90.8133 46.2309 90.4267 46.7909 89.68C47.3776 88.9333 47.6709 87.7067 47.6709 86C47.6709 84.5333 47.4443 83.44 46.9909 82.72C46.5643 82 45.7909 81.64 44.6709 81.64C43.5776 81.64 42.8309 82.0267 42.4309 82.8C42.0309 83.5733 41.8043 84.72 41.7509 86.24V87.4H36.2709V85.88C36.2709 83.1067 36.9909 80.9733 38.4309 79.48C39.8976 77.96 41.9776 77.2 44.6709 77.2C47.4176 77.2 49.5109 77.9467 50.9509 79.44C52.4176 80.9067 53.1509 83.0133 53.1509 85.76C53.1509 87.6533 52.7509 89.2267 51.9509 90.48C51.1776 91.7067 50.1509 92.5067 48.8709 92.88C50.2043 93.3333 51.2443 94.2 51.9909 95.48C52.7643 96.7333 53.1509 98.4533 53.1509 100.64C53.1509 103.733 52.4709 106.147 51.1109 107.88C49.7776 109.613 47.6443 110.48 44.7109 110.48ZM64.5147 110.48C61.448 110.48 59.3147 109.667 58.1147 108.04C56.9414 106.387 56.3547 103.947 56.3547 100.72H61.7547C61.7547 102.56 61.9547 103.947 62.3547 104.88C62.7547 105.813 63.5414 106.28 64.7147 106.28C65.5947 106.28 66.248 106 66.6747 105.44C67.1014 104.853 67.368 104.08 67.4747 103.12C67.608 102.133 67.6747 100.773 67.6747 99.04C67.6747 96.9067 67.4747 95.3333 67.0747 94.32C66.6747 93.3067 65.848 92.8 64.5947 92.8C63.848 92.8 63.208 93.0533 62.6747 93.56C62.168 94.0667 61.7947 94.76 61.5547 95.64H56.7947L57.1147 77.6H71.6747V82.56H61.7547L61.4347 90.36C61.888 89.8533 62.5414 89.4533 63.3947 89.16C64.248 88.84 65.1814 88.68 66.1947 88.68C68.488 88.68 70.1814 89.56 71.2747 91.32C72.3947 93.0533 72.9547 95.5067 72.9547 98.68C72.9547 101.16 72.7147 103.253 72.2347 104.96C71.7814 106.667 70.9414 108.013 69.7147 109C68.488 109.987 66.7547 110.48 64.5147 110.48ZM82.8413 95.44C80.4146 95.44 78.6546 94.76 77.5613 93.4C76.4679 92.04 75.9213 90.0267 75.9213 87.36V85.4C75.9213 82.6533 76.4546 80.64 77.5213 79.36C78.5879 78.08 80.3613 77.44 82.8413 77.44C85.3479 77.44 87.1346 78.0667 88.2013 79.32C89.2679 80.5733 89.8013 82.5467 89.8013 85.24V87.44C89.8013 90.1067 89.2546 92.1067 88.1613 93.44C87.0679 94.7733 85.2946 95.44 82.8413 95.44ZM96.2013 77.56H99.8413L90.4013 110H86.7213L96.2013 77.56ZM82.8413 91.72C83.8013 91.72 84.4279 91.36 84.7213 90.64C85.0146 89.92 85.1613 88.8 85.1613 87.28V85.36C85.1613 83.8667 85.0146 82.8 84.7213 82.16C84.4546 81.52 83.8279 81.2 82.8413 81.2C81.8813 81.2 81.2546 81.5333 80.9613 82.2C80.6946 82.84 80.5613 83.9067 80.5613 85.4V87.32C80.5613 88.8133 80.7079 89.92 81.0013 90.64C81.2946 91.36 81.9079 91.72 82.8413 91.72ZM103.681 110.12C101.255 110.12 99.4946 109.453 98.4013 108.12C97.3079 106.76 96.7613 104.733 96.7613 102.04V100.08C96.7613 97.36 97.2946 95.36 98.3613 94.08C99.4279 92.8 101.201 92.16 103.681 92.16C106.188 92.16 107.975 92.7867 109.041 94.04C110.108 95.2933 110.641 97.2667 110.641 99.96V102.12C110.641 104.813 110.095 106.827 109.001 108.16C107.908 109.467 106.135 110.12 103.681 110.12ZM103.681 106.4C104.641 106.4 105.268 106.04 105.561 105.32C105.855 104.6 106.001 103.493 106.001 102V100.08C106.001 98.5867 105.855 97.52 105.561 96.88C105.295 96.2133 104.668 95.88 103.681 95.88C102.721 95.88 102.095 96.2133 101.801 96.88C101.535 97.52 101.401 98.5867 101.401 100.08V102C101.401 103.493 101.548 104.6 101.841 105.32C102.135 106.04 102.748 106.4 103.681 106.4Z" fill="white"></path></svg>