<svg xmlns="http://www.w3.org/2000/svg" width="128" height="128" viewBox="0 0 128 128" fill="none"><circle cx="64" cy="64" r="64" fill="#FECC00"></circle><path d="M42.64 64.352C40.2507 64.352 38.4587 63.7013 37.264 62.4C36.0693 61.0773 35.4187 59.04 35.312 56.288L39.856 55.52C39.8987 57.1627 40.1227 58.3787 40.528 59.168C40.9547 59.936 41.584 60.32 42.416 60.32C43.0347 60.32 43.4827 60.128 43.76 59.744C44.0373 59.3387 44.176 58.8267 44.176 58.208C44.176 57.184 43.9413 56.32 43.472 55.616C43.024 54.8907 42.3093 54.1013 41.328 53.248L38.64 50.912C37.5733 50.016 36.752 49.056 36.176 48.032C35.6213 47.008 35.344 45.7813 35.344 44.352C35.344 42.24 35.9627 40.6187 37.2 39.488C38.4587 38.336 40.1867 37.76 42.384 37.76C44.7307 37.76 46.3627 38.4427 47.28 39.808C48.1973 41.152 48.72 42.8693 48.848 44.96L44.272 45.632C44.2293 44.2667 44.0693 43.264 43.792 42.624C43.536 41.9627 43.0133 41.632 42.224 41.632C41.648 41.632 41.2 41.856 40.88 42.304C40.56 42.7307 40.4 43.2427 40.4 43.84C40.4 44.6933 40.5813 45.4187 40.944 46.016C41.328 46.592 41.9253 47.232 42.736 47.936L45.36 50.24C46.5973 51.328 47.568 52.48 48.272 53.696C48.976 54.8907 49.328 56.2987 49.328 57.92C49.328 59.1573 49.0507 60.2667 48.496 61.248C47.9413 62.208 47.152 62.9653 46.128 63.52C45.1253 64.0747 43.9627 64.352 42.64 64.352ZM55.6648 38.08H61.5208L66.5128 64H61.6488L60.6888 58.304H56.5928L55.6008 64H50.6408L55.6648 38.08ZM60.1768 55.04L58.6088 44.608L57.0728 55.04H60.1768ZM66.9228 38.08H71.4988L74.5708 56L77.4508 38.08H82.2188L77.2908 64H71.8508L66.9228 38.08ZM84.8583 38.08H96.1543V41.728H90.1063V48.608H94.7783V52.288H90.1063V60.416H96.2183V64H84.8583V38.08ZM42.192 96.448C39.7173 96.448 37.936 95.7653 36.848 94.4C35.76 93.0347 35.216 91.104 35.216 88.608V87.712H40.144V88.576C40.1653 89.8987 40.3253 90.848 40.624 91.424C40.9227 92 41.4667 92.288 42.256 92.288C43.0453 92.288 43.5787 92 43.856 91.424C44.1333 90.8267 44.272 89.8667 44.272 88.544C44.272 87.1573 44.0587 86.1333 43.632 85.472C43.2267 84.7893 42.48 84.4373 41.392 84.416C41.3493 84.3947 41.0613 84.384 40.528 84.384V80.768H41.296C42.4267 80.768 43.2053 80.4693 43.632 79.872C44.0587 79.2747 44.272 78.2933 44.272 76.928C44.272 75.8187 44.112 74.9973 43.792 74.464C43.4933 73.9307 42.9493 73.664 42.16 73.664C41.392 73.664 40.8693 73.952 40.592 74.528C40.3147 75.104 40.1653 75.9573 40.144 77.088V78.24H35.216V76.832C35.216 74.5707 35.824 72.8213 37.04 71.584C38.256 70.3467 39.9627 69.728 42.16 69.728C44.3787 69.728 46.096 70.3253 47.312 71.52C48.528 72.7147 49.136 74.432 49.136 76.672C49.136 78.144 48.8267 79.392 48.208 80.416C47.6107 81.44 46.832 82.08 45.872 82.336C48.048 83.1467 49.136 85.184 49.136 88.448C49.136 90.944 48.5813 92.9067 47.472 94.336C46.3627 95.744 44.6027 96.448 42.192 96.448ZM58.8915 96.448C56.6302 96.448 54.9022 95.776 53.7075 94.432C52.5342 93.0667 51.9475 91.2427 51.9475 88.96V77.344C51.9475 74.976 52.5235 73.12 53.6755 71.776C54.8275 70.4107 56.5662 69.728 58.8915 69.728C61.1955 69.728 62.9235 70.4107 64.0755 71.776C65.2275 73.12 65.8035 74.976 65.8035 77.344V88.96C65.8035 91.2213 65.2062 93.0347 64.0115 94.4C62.8168 95.7653 61.1102 96.448 58.8915 96.448ZM58.8915 92.096C60.1502 92.096 60.7795 91.0187 60.7795 88.864V77.44C60.7795 76.48 60.6515 75.68 60.3955 75.04C60.1608 74.4 59.6595 74.08 58.8915 74.08C58.0808 74.08 57.5582 74.4 57.3235 75.04C57.0888 75.6587 56.9715 76.4587 56.9715 77.44V88.864C56.9715 91.0187 57.6115 92.096 58.8915 92.096ZM74.7625 84.608C72.6932 84.608 71.1998 84.0533 70.2825 82.944C69.3865 81.8347 68.9385 80.1493 68.9385 77.888V76.576C68.9385 74.272 69.3758 72.608 70.2505 71.584C71.1465 70.5387 72.6505 70.016 74.7625 70.016C76.8958 70.016 78.4105 70.528 79.3065 71.552C80.2025 72.5547 80.6505 74.1973 80.6505 76.48V77.952C80.6505 80.2133 80.1918 81.888 79.2745 82.976C78.3572 84.064 76.8532 84.608 74.7625 84.608ZM85.6745 70.08H88.5865L80.8105 96H77.8985L85.6745 70.08ZM74.7625 81.408C75.5305 81.408 76.0212 81.1307 76.2345 80.576C76.4692 80 76.5865 79.0613 76.5865 77.76V76.64C76.5865 75.7653 76.5438 75.104 76.4585 74.656C76.3945 74.1867 76.2345 73.8347 75.9785 73.6C75.7225 73.344 75.3172 73.216 74.7625 73.216C74.2292 73.216 73.8345 73.344 73.5785 73.6C73.3225 73.8347 73.1518 74.1867 73.0665 74.656C73.0025 75.104 72.9705 75.7653 72.9705 76.64V77.792C72.9705 79.0933 73.0772 80.0213 73.2905 80.576C73.5252 81.1307 74.0158 81.408 74.7625 81.408ZM91.7225 96.064C89.6532 96.064 88.1598 95.52 87.2425 94.432C86.3465 93.3227 85.8985 91.6373 85.8985 89.376V88.032C85.8985 85.7493 86.3358 84.0853 87.2105 83.04C88.1065 81.9947 89.6105 81.472 91.7225 81.472C93.8345 81.472 95.3385 81.984 96.2345 83.008C97.1305 84.032 97.5785 85.6853 97.5785 87.968V89.408C97.5785 91.6693 97.1198 93.344 96.2025 94.432C95.2852 95.52 93.7918 96.064 91.7225 96.064ZM91.7225 92.896C92.4905 92.896 92.9812 92.6187 93.1945 92.064C93.4078 91.488 93.5145 90.5493 93.5145 89.248V88.096C93.5145 87.2 93.4825 86.528 93.4185 86.08C93.3545 85.632 93.1945 85.2907 92.9385 85.056C92.6825 84.8 92.2772 84.672 91.7225 84.672C91.1678 84.672 90.7625 84.8 90.5065 85.056C90.2718 85.2907 90.1118 85.6427 90.0265 86.112C89.9625 86.56 89.9305 87.2213 89.9305 88.096V89.248C89.9305 90.5493 90.0372 91.488 90.2505 92.064C90.4852 92.6187 90.9758 92.896 91.7225 92.896Z" fill="#121212"></path></svg>